# xmcd
#
# Track frame offsets: 
#        150
#        22708
#        57586
#        83808
#        120646
#        146601
#        169901
#        201646
#        244891
#        266008
#
# Disc length: 3827 seconds
#
# Revision: 3
# Processed by: cddbd v1.5.2PL0 Copyright (c) Steve Scherf et al.
# Submitted via: ExactAudioCopy v1.1
#
DISCID=900ef10a
DTITLE=Muskee - Live
DYEAR=1991
DGENRE=Blues
TTITLE0=Goin' Down
TTITLE1=Too Blind To See
TTITLE2=Caddilac Assembly Line
TTITLE3=Shaky Grounds
TTITLE4=I'm In Love
TTITLE5=Brother Booze
TTITLE6=Help Me
TTITLE7=Hobo Blues
TTITLE8=Voodoo Daddy
TTITLE9=Window Of My Eyes '91
EXTD=
EXTT0=
EXTT1=
EXTT2=
EXTT3=
EXTT4=
EXTT5=
EXTT6=
EXTT7=
EXTT8=
EXTT9=
PLAYORDER=
